<?xml version="1.0" encoding="utf-8"?>
<!-- Generator: Adobe Illustrator 24.1.0, SVG Export Plug-In . SVG Version: 6.00 Build 0)  -->
<svg version="1.1" id="logo--svg" xmlns="http://www.w3.org/2000/svg" xmlns:xlink="http://www.w3.org/1999/xlink" x="0px" y="0px"
	 viewBox="0 0 135 35" style="enable-background:new 0 0 135 35;" xml:space="preserve">
<path d="M18.3,19.3l-3-9.6h-3.7l-3,9.5L5.5,9.7H2.2l4.7,15h3.3l3.3-10.3l3.2,10.3h3.3l4.8-15h-3.3L18.3,19.3z M29.6,9.7h4.2v15h-4.2
	V9.7z M38.9,2.4h4.2v22.2h-4.2V2.4z M48.2,2.4h4.2v22.2h-4.2V2.4z M67.4,15l-2.6-0.7c-0.9-0.3-1.6-0.7-1.6-1.3c0-1.2,1-1.6,2-1.6
	c0.9,0,2.1,0.5,2.2,1.6h3.9c-0.1-3.6-3.2-5-6.1-5c-3.1,0-5.8,2.2-5.8,4.7c0,1.8,0.4,3.7,4.4,4.8l2.2,0.5c1.2,0.3,1.8,0.7,1.7,1.5
	c0,0.9-0.9,1.6-2.1,1.6c-1.5,0.1-2.8-0.8-2.9-2h-3.9c0.1,3.4,3.3,5.3,6.3,5.3c3.3,0,6.5-1.6,6.5-4.8C71.6,18.5,71.1,15.9,67.4,15z
	 M90.6,18.2l-4-10.1h-6.1V2.4h-4.2v5.8h-2.9v3.4h2.9v13.1h4.2V11.6h3.1l4.8,11.5l-3.7,9.1h4.4l9.9-24h-4.4L90.6,18.2z M101.7,2.4
	h4.2v22.2h-4.2V2.4z M117.6,7.8c-4.6,0-8.4,3.3-8.4,8.4s3.8,8.4,8.4,8.4c2.9,0,4.8-0.6,6.6-2.6l-3-2.2c-0.8,0.8-1.7,1.2-3.3,1.2
	c-2.4,0-4.2-1.3-4.4-3.5h12.3c0.1-0.4,0.1-1,0.1-1.4C125.8,11.1,122.2,7.8,117.6,7.8z M113.4,14.8c0.3-2.2,2-3.4,4.2-3.4
	c2.1,0,3.7,1.2,4.1,3.4H113.4z"/>
<circle cx="31.7" cy="4.5" r="2.1"/>
<circle cx="130.7" cy="22.8" r="2.1"/>
</svg>
